<mxfile host="Electron" agent="Mozilla/5.0 (Windows NT 10.0; Win64; x64) AppleWebKit/537.36 (KHTML, like Gecko) draw.io/24.7.8 Chrome/128.0.6613.36 Electron/32.0.1 Safari/537.36" version="24.7.8">
  <diagram name="Página-1" id="-51WUp4hqLwMOrZkA3RV">
    <mxGraphModel dx="1434" dy="836" grid="1" gridSize="10" guides="1" tooltips="1" connect="1" arrows="1" fold="1" page="1" pageScale="1" pageWidth="827" pageHeight="1169" math="0" shadow="0">
      <root>
        <mxCell id="0" />
        <mxCell id="1" parent="0" />
        <mxCell id="graa9BhPcR7oFFzmBQJd-1" value="Alumnos" style="swimlane;childLayout=stackLayout;horizontal=1;startSize=50;horizontalStack=0;rounded=1;fontSize=14;fontStyle=0;strokeWidth=2;resizeParent=0;resizeLast=1;shadow=0;dashed=0;align=center;arcSize=4;whiteSpace=wrap;html=1;" vertex="1" parent="1">
          <mxGeometry x="20" y="260" width="190" height="120" as="geometry" />
        </mxCell>
        <mxCell id="graa9BhPcR7oFFzmBQJd-2" value="&lt;u&gt;id alumno &lt;/u&gt;(numero)PK NN AI U&lt;div&gt;Nombre (texto) NN&lt;/div&gt;&lt;div&gt;Telefono (numero) NN&lt;/div&gt;&lt;div&gt;Año_nac (fecha)&amp;nbsp;&lt;/div&gt;" style="align=left;strokeColor=none;fillColor=none;spacingLeft=4;fontSize=12;verticalAlign=top;resizable=0;rotatable=0;part=1;html=1;" vertex="1" parent="graa9BhPcR7oFFzmBQJd-1">
          <mxGeometry y="50" width="190" height="70" as="geometry" />
        </mxCell>
        <mxCell id="graa9BhPcR7oFFzmBQJd-3" value="Notificaciones" style="swimlane;childLayout=stackLayout;horizontal=1;startSize=50;horizontalStack=0;rounded=1;fontSize=14;fontStyle=0;strokeWidth=2;resizeParent=0;resizeLast=1;shadow=0;dashed=0;align=center;arcSize=4;whiteSpace=wrap;html=1;" vertex="1" parent="1">
          <mxGeometry x="334" y="465" width="160" height="120" as="geometry" />
        </mxCell>
        <mxCell id="graa9BhPcR7oFFzmBQJd-4" value="&lt;u&gt;id &lt;/u&gt;(numero) PK AI NN U&lt;div&gt;Texto (texto) NN&lt;/div&gt;&lt;div&gt;Fecha (fecha) NN&lt;/div&gt;" style="align=left;strokeColor=none;fillColor=none;spacingLeft=4;fontSize=12;verticalAlign=top;resizable=0;rotatable=0;part=1;html=1;" vertex="1" parent="graa9BhPcR7oFFzmBQJd-3">
          <mxGeometry y="50" width="160" height="70" as="geometry" />
        </mxCell>
        <mxCell id="graa9BhPcR7oFFzmBQJd-5" value="Cursos" style="swimlane;childLayout=stackLayout;horizontal=1;startSize=50;horizontalStack=0;rounded=1;fontSize=14;fontStyle=0;strokeWidth=2;resizeParent=0;resizeLast=1;shadow=0;dashed=0;align=center;arcSize=4;whiteSpace=wrap;html=1;" vertex="1" parent="1">
          <mxGeometry x="620" y="270" width="160" height="120" as="geometry" />
        </mxCell>
        <mxCell id="graa9BhPcR7oFFzmBQJd-6" value="&lt;u style=&quot;&quot;&gt;id (numero) &lt;/u&gt;PK AI NN U&lt;div&gt;nombre (texto) NN&lt;/div&gt;" style="align=left;strokeColor=none;fillColor=none;spacingLeft=4;fontSize=12;verticalAlign=top;resizable=0;rotatable=0;part=1;html=1;" vertex="1" parent="graa9BhPcR7oFFzmBQJd-5">
          <mxGeometry y="50" width="160" height="70" as="geometry" />
        </mxCell>
        <mxCell id="graa9BhPcR7oFFzmBQJd-9" value="Matriculas" style="swimlane;childLayout=stackLayout;horizontal=1;startSize=50;horizontalStack=0;rounded=1;fontSize=14;fontStyle=0;strokeWidth=2;resizeParent=0;resizeLast=1;shadow=0;dashed=0;align=center;arcSize=4;whiteSpace=wrap;html=1;" vertex="1" parent="1">
          <mxGeometry x="320" y="180" width="160" height="120" as="geometry" />
        </mxCell>
        <mxCell id="graa9BhPcR7oFFzmBQJd-10" value="&lt;i&gt;&lt;u&gt;id alumno&amp;nbsp;&lt;/u&gt;(numero)PK NN&amp;nbsp;&lt;/i&gt;&lt;div&gt;&lt;i&gt;&lt;u style=&quot;background-color: initial;&quot;&gt;id (numero)&amp;nbsp;&lt;/u&gt;&lt;span style=&quot;background-color: initial;&quot;&gt;PK NN&lt;/span&gt;&lt;/i&gt;&lt;/div&gt;&lt;div&gt;&lt;span style=&quot;background-color: initial;&quot;&gt;Fecha (fecha) NN&lt;/span&gt;&lt;span style=&quot;background-color: initial;&quot;&gt;&amp;nbsp;&lt;/span&gt;&lt;div&gt;&lt;br&gt;&lt;/div&gt;&lt;/div&gt;" style="align=left;strokeColor=none;fillColor=none;spacingLeft=4;fontSize=12;verticalAlign=top;resizable=0;rotatable=0;part=1;html=1;" vertex="1" parent="graa9BhPcR7oFFzmBQJd-9">
          <mxGeometry y="50" width="160" height="70" as="geometry" />
        </mxCell>
        <mxCell id="graa9BhPcR7oFFzmBQJd-11" value="" style="endArrow=none;html=1;rounded=0;exitX=1;exitY=0.25;exitDx=0;exitDy=0;entryX=0;entryY=0.25;entryDx=0;entryDy=0;" edge="1" parent="1" source="graa9BhPcR7oFFzmBQJd-2" target="graa9BhPcR7oFFzmBQJd-10">
          <mxGeometry relative="1" as="geometry">
            <mxPoint x="280" y="390" as="sourcePoint" />
            <mxPoint x="440" y="390" as="targetPoint" />
          </mxGeometry>
        </mxCell>
        <mxCell id="graa9BhPcR7oFFzmBQJd-12" value="" style="endArrow=none;html=1;rounded=0;exitX=0;exitY=0.25;exitDx=0;exitDy=0;entryX=0.981;entryY=0.4;entryDx=0;entryDy=0;entryPerimeter=0;" edge="1" parent="1" source="graa9BhPcR7oFFzmBQJd-6" target="graa9BhPcR7oFFzmBQJd-10">
          <mxGeometry relative="1" as="geometry">
            <mxPoint x="220" y="338" as="sourcePoint" />
            <mxPoint x="330" y="258" as="targetPoint" />
          </mxGeometry>
        </mxCell>
        <mxCell id="graa9BhPcR7oFFzmBQJd-13" value="" style="endArrow=none;html=1;rounded=0;exitX=1;exitY=0.5;exitDx=0;exitDy=0;entryX=0;entryY=0.5;entryDx=0;entryDy=0;" edge="1" parent="1" source="graa9BhPcR7oFFzmBQJd-2" target="graa9BhPcR7oFFzmBQJd-3">
          <mxGeometry relative="1" as="geometry">
            <mxPoint x="230" y="348" as="sourcePoint" />
            <mxPoint x="340" y="268" as="targetPoint" />
          </mxGeometry>
        </mxCell>
        <mxCell id="graa9BhPcR7oFFzmBQJd-15" value="1:N" style="text;html=1;align=center;verticalAlign=middle;resizable=0;points=[];autosize=1;strokeColor=none;fillColor=none;" vertex="1" parent="1">
          <mxGeometry x="240" y="238" width="40" height="30" as="geometry" />
        </mxCell>
      </root>
    </mxGraphModel>
  </diagram>
</mxfile>
